<mxfile host="app.diagrams.net" modified="2021-05-05T15:42:26.770Z" agent="5.0 (X11; Linux x86_64) AppleWebKit/537.36 (KHTML, like Gecko) Chrome/85.0.4183.83 Safari/537.36" etag="PsHKvBULT3FNEm9bWAMH" version="14.5.10" type="github">
  <diagram id="8f2JrUlGuPTvHsmJs0fN" name="Page-1">
    <mxGraphModel dx="1182" dy="769" grid="1" gridSize="10" guides="1" tooltips="1" connect="1" arrows="1" fold="1" page="1" pageScale="1" pageWidth="827" pageHeight="1169" math="0" shadow="0">
      <root>
        <mxCell id="0" />
        <mxCell id="1" parent="0" />
        <mxCell id="-jcanLdKdCl-yKt6BdGD-53" value="" style="rounded=0;whiteSpace=wrap;html=1;fillColor=#ffffff;" parent="1" vertex="1">
          <mxGeometry x="10" y="228.84000000000003" width="210" height="40" as="geometry" />
        </mxCell>
        <mxCell id="IBeI8l__l9tSu07Wctf3-1" value="supervisor - nodo" style="ellipse;whiteSpace=wrap;html=1;aspect=fixed;fillColor=#f8cecc;strokeColor=#b85450;" parent="1" vertex="1">
          <mxGeometry x="452" y="35" width="104" height="104" as="geometry" />
        </mxCell>
        <mxCell id="IBeI8l__l9tSu07Wctf3-3" value="state-server&lt;br&gt;&amp;nbsp;{[variabili], &lt;br&gt;tipo,&lt;br&gt;lamport,&lt;br&gt;RULES,&lt;br&gt;vicini,&lt;br&gt;flood state,&lt;br&gt;tree state}" style="ellipse;whiteSpace=wrap;html=1;aspect=fixed;fillColor=#dae8fc;strokeColor=#6c8ebf;" parent="1" vertex="1">
          <mxGeometry x="439" y="255" width="130" height="130" as="geometry" />
        </mxCell>
        <mxCell id="IBeI8l__l9tSu07Wctf3-5" value="sup workers" style="ellipse;whiteSpace=wrap;html=1;aspect=fixed;fillColor=#f8cecc;strokeColor=#b85450;" parent="1" vertex="1">
          <mxGeometry x="670" y="133.84" width="110" height="110" as="geometry" />
        </mxCell>
        <mxCell id="IBeI8l__l9tSu07Wctf3-8" value="COMM.&lt;br&gt;IN" style="ellipse;whiteSpace=wrap;html=1;aspect=fixed;fillColor=#d5e8d4;strokeColor=#82b366;" parent="1" vertex="1">
          <mxGeometry x="840" y="280.00000000000006" width="80" height="80" as="geometry" />
        </mxCell>
        <mxCell id="IBeI8l__l9tSu07Wctf3-12" value="RULES WORKER" style="ellipse;whiteSpace=wrap;html=1;aspect=fixed;fillColor=#d5e8d4;strokeColor=#82b366;" parent="1" vertex="1">
          <mxGeometry x="670" y="308.84000000000003" width="110" height="110" as="geometry" />
        </mxCell>
        <mxCell id="IBeI8l__l9tSu07Wctf3-23" value="SUP che mantiene vivi tutti" style="text;html=1;strokeColor=none;fillColor=none;align=center;verticalAlign=middle;whiteSpace=wrap;rounded=0;" parent="1" vertex="1">
          <mxGeometry x="540" y="10" width="100" height="50" as="geometry" />
        </mxCell>
        <mxCell id="IBeI8l__l9tSu07Wctf3-24" value="SUP che tiene vivi i worker" style="text;html=1;strokeColor=none;fillColor=none;align=center;verticalAlign=middle;whiteSpace=wrap;rounded=0;" parent="1" vertex="1">
          <mxGeometry x="727" y="100.00000000000006" width="100" height="30" as="geometry" />
        </mxCell>
        <mxCell id="IBeI8l__l9tSu07Wctf3-25" value="AMBIENTE" style="ellipse;whiteSpace=wrap;html=1;aspect=fixed;fillColor=#ffe6cc;strokeColor=#d79b00;" parent="1" vertex="1">
          <mxGeometry width="174" height="174" as="geometry" />
        </mxCell>
        <mxCell id="IBeI8l__l9tSu07Wctf3-32" value="" style="endArrow=none;dashed=1;html=1;dashPattern=1 3;strokeWidth=2;entryX=1;entryY=1;entryDx=0;entryDy=0;" parent="1" source="-jcanLdKdCl-yKt6BdGD-3" target="IBeI8l__l9tSu07Wctf3-25" edge="1">
          <mxGeometry width="50" height="50" relative="1" as="geometry">
            <mxPoint x="680" y="146" as="sourcePoint" />
            <mxPoint x="307.0000000000002" y="20" as="targetPoint" />
          </mxGeometry>
        </mxCell>
        <mxCell id="IBeI8l__l9tSu07Wctf3-35" value="" style="endArrow=classic;html=1;entryX=0;entryY=0.5;entryDx=0;entryDy=0;exitX=1;exitY=0.5;exitDx=0;exitDy=0;" parent="1" source="IBeI8l__l9tSu07Wctf3-25" target="IBeI8l__l9tSu07Wctf3-1" edge="1">
          <mxGeometry relative="1" as="geometry">
            <mxPoint x="220" y="40" as="sourcePoint" />
            <mxPoint x="540" y="280" as="targetPoint" />
          </mxGeometry>
        </mxCell>
        <mxCell id="IBeI8l__l9tSu07Wctf3-36" value="SPAWN" style="edgeLabel;resizable=0;html=1;align=center;verticalAlign=middle;" parent="IBeI8l__l9tSu07Wctf3-35" connectable="0" vertex="1">
          <mxGeometry relative="1" as="geometry" />
        </mxCell>
        <mxCell id="CnOm33l_RqHOCfw_i5Eg-1" value="sup&lt;br&gt;heartbeat" style="ellipse;whiteSpace=wrap;html=1;aspect=fixed;fillColor=#d5e8d4;strokeColor=#82b366;" parent="1" vertex="1">
          <mxGeometry x="940" y="148.84" width="80" height="80" as="geometry" />
        </mxCell>
        <mxCell id="CnOm33l_RqHOCfw_i5Eg-6" value="Aggiunta nuovo vicino e controllo vita" style="text;html=1;strokeColor=none;fillColor=none;align=center;verticalAlign=middle;whiteSpace=wrap;rounded=0;" parent="1" vertex="1">
          <mxGeometry x="935" y="110.00000000000006" width="90" height="20" as="geometry" />
        </mxCell>
        <mxCell id="-jcanLdKdCl-yKt6BdGD-3" value="comm.&lt;br&gt;ambiente" style="ellipse;whiteSpace=wrap;html=1;aspect=fixed;fillColor=#e1d5e7;strokeColor=#9673a6;" parent="1" vertex="1">
          <mxGeometry x="300" y="200.00000000000003" width="80" height="80" as="geometry" />
        </mxCell>
        <mxCell id="-jcanLdKdCl-yKt6BdGD-7" value="" style="endArrow=classic;html=1;entryX=1;entryY=0;entryDx=0;entryDy=0;exitX=0;exitY=1;exitDx=0;exitDy=0;" parent="1" source="IBeI8l__l9tSu07Wctf3-1" target="-jcanLdKdCl-yKt6BdGD-3" edge="1">
          <mxGeometry width="50" height="50" relative="1" as="geometry">
            <mxPoint x="538" y="124" as="sourcePoint" />
            <mxPoint x="600" y="243.84000000000006" as="targetPoint" />
          </mxGeometry>
        </mxCell>
        <mxCell id="-jcanLdKdCl-yKt6BdGD-8" value="COMM_&lt;br&gt;OUT" style="ellipse;whiteSpace=wrap;html=1;aspect=fixed;dashed=1;fillColor=#fff2cc;strokeColor=#d6b656;" parent="1" vertex="1">
          <mxGeometry x="796" y="430.00000000000006" width="80" height="80" as="geometry" />
        </mxCell>
        <mxCell id="-jcanLdKdCl-yKt6BdGD-12" value="" style="endArrow=classic;html=1;exitX=0.5;exitY=1;exitDx=0;exitDy=0;" parent="1" source="IBeI8l__l9tSu07Wctf3-1" target="IBeI8l__l9tSu07Wctf3-3" edge="1">
          <mxGeometry relative="1" as="geometry">
            <mxPoint x="186.53999999999908" y="249.24" as="sourcePoint" />
            <mxPoint x="403.9960000000001" y="363.84000000000003" as="targetPoint" />
          </mxGeometry>
        </mxCell>
        <mxCell id="-jcanLdKdCl-yKt6BdGD-13" value="SPAWN" style="edgeLabel;resizable=0;html=1;align=center;verticalAlign=middle;" parent="-jcanLdKdCl-yKt6BdGD-12" connectable="0" vertex="1">
          <mxGeometry relative="1" as="geometry" />
        </mxCell>
        <mxCell id="-jcanLdKdCl-yKt6BdGD-14" value="" style="endArrow=classic;html=1;entryX=0;entryY=0;entryDx=0;entryDy=0;exitX=1;exitY=0.5;exitDx=0;exitDy=0;" parent="1" source="IBeI8l__l9tSu07Wctf3-1" target="IBeI8l__l9tSu07Wctf3-5" edge="1">
          <mxGeometry relative="1" as="geometry">
            <mxPoint x="640" y="87" as="sourcePoint" />
            <mxPoint x="561.4560000000001" y="125.44000000000005" as="targetPoint" />
          </mxGeometry>
        </mxCell>
        <mxCell id="-jcanLdKdCl-yKt6BdGD-15" value="SPAWN" style="edgeLabel;resizable=0;html=1;align=center;verticalAlign=middle;" parent="-jcanLdKdCl-yKt6BdGD-14" connectable="0" vertex="1">
          <mxGeometry relative="1" as="geometry" />
        </mxCell>
        <mxCell id="-jcanLdKdCl-yKt6BdGD-16" value="" style="endArrow=classic;html=1;entryX=0.5;entryY=0;entryDx=0;entryDy=0;exitX=0.5;exitY=1;exitDx=0;exitDy=0;" parent="1" source="IBeI8l__l9tSu07Wctf3-5" target="IBeI8l__l9tSu07Wctf3-12" edge="1">
          <mxGeometry relative="1" as="geometry">
            <mxPoint x="483.9999999999991" y="20.840000000000003" as="sourcePoint" />
            <mxPoint x="701.4560000000001" y="135.44000000000005" as="targetPoint" />
          </mxGeometry>
        </mxCell>
        <mxCell id="-jcanLdKdCl-yKt6BdGD-17" value="SPAWN" style="edgeLabel;resizable=0;html=1;align=center;verticalAlign=middle;" parent="-jcanLdKdCl-yKt6BdGD-16" connectable="0" vertex="1">
          <mxGeometry relative="1" as="geometry" />
        </mxCell>
        <mxCell id="-jcanLdKdCl-yKt6BdGD-18" value="" style="endArrow=classic;html=1;entryX=0;entryY=0;entryDx=0;entryDy=0;exitX=1;exitY=1;exitDx=0;exitDy=0;" parent="1" source="IBeI8l__l9tSu07Wctf3-5" target="IBeI8l__l9tSu07Wctf3-8" edge="1">
          <mxGeometry relative="1" as="geometry">
            <mxPoint x="493.9999999999991" y="30.840000000000003" as="sourcePoint" />
            <mxPoint x="711.4560000000001" y="145.44000000000005" as="targetPoint" />
          </mxGeometry>
        </mxCell>
        <mxCell id="-jcanLdKdCl-yKt6BdGD-19" value="SPAWN" style="edgeLabel;resizable=0;html=1;align=center;verticalAlign=middle;" parent="-jcanLdKdCl-yKt6BdGD-18" connectable="0" vertex="1">
          <mxGeometry relative="1" as="geometry" />
        </mxCell>
        <mxCell id="-jcanLdKdCl-yKt6BdGD-20" value="" style="endArrow=classic;html=1;entryX=0;entryY=0.5;entryDx=0;entryDy=0;exitX=1;exitY=0.5;exitDx=0;exitDy=0;" parent="1" source="IBeI8l__l9tSu07Wctf3-5" target="CnOm33l_RqHOCfw_i5Eg-1" edge="1">
          <mxGeometry relative="1" as="geometry">
            <mxPoint x="503.9999999999991" y="40.84" as="sourcePoint" />
            <mxPoint x="721.4560000000001" y="155.44000000000005" as="targetPoint" />
          </mxGeometry>
        </mxCell>
        <mxCell id="-jcanLdKdCl-yKt6BdGD-21" value="SPAWN" style="edgeLabel;resizable=0;html=1;align=center;verticalAlign=middle;" parent="-jcanLdKdCl-yKt6BdGD-20" connectable="0" vertex="1">
          <mxGeometry relative="1" as="geometry" />
        </mxCell>
        <mxCell id="-jcanLdKdCl-yKt6BdGD-30" value="" style="endArrow=none;dashed=1;html=1;dashPattern=1 3;strokeWidth=2;entryX=0.5;entryY=1;entryDx=0;entryDy=0;exitX=0;exitY=0.5;exitDx=0;exitDy=0;rounded=0;" parent="1" source="-jcanLdKdCl-yKt6BdGD-8" target="IBeI8l__l9tSu07Wctf3-3" edge="1">
          <mxGeometry width="50" height="50" relative="1" as="geometry">
            <mxPoint x="360" y="428.84000000000003" as="sourcePoint" />
            <mxPoint x="410" y="378.84000000000003" as="targetPoint" />
            <Array as="points">
              <mxPoint x="630" y="470" />
              <mxPoint x="504" y="470" />
              <mxPoint x="504" y="440" />
            </Array>
          </mxGeometry>
        </mxCell>
        <mxCell id="-jcanLdKdCl-yKt6BdGD-31" value="" style="endArrow=none;dashed=1;html=1;dashPattern=1 3;strokeWidth=2;exitX=0;exitY=1;exitDx=0;exitDy=0;rounded=0;entryX=0.5;entryY=1;entryDx=0;entryDy=0;" parent="1" source="IBeI8l__l9tSu07Wctf3-3" edge="1">
          <mxGeometry width="50" height="50" relative="1" as="geometry">
            <mxPoint x="458.0380592228744" y="357.9619407771256" as="sourcePoint" />
            <mxPoint x="980" y="337" as="targetPoint" />
            <Array as="points">
              <mxPoint x="458" y="522" />
              <mxPoint x="980" y="522" />
            </Array>
          </mxGeometry>
        </mxCell>
        <mxCell id="-jcanLdKdCl-yKt6BdGD-32" value="" style="endArrow=none;dashed=1;html=1;dashPattern=1 3;strokeWidth=2;exitX=0;exitY=0.5;exitDx=0;exitDy=0;rounded=0;entryX=1;entryY=0.5;entryDx=0;entryDy=0;" parent="1" source="IBeI8l__l9tSu07Wctf3-12" target="IBeI8l__l9tSu07Wctf3-3" edge="1">
          <mxGeometry width="50" height="50" relative="1" as="geometry">
            <mxPoint x="390" y="443.84000000000003" as="sourcePoint" />
            <mxPoint x="600" y="310" as="targetPoint" />
            <Array as="points">
              <mxPoint x="600" y="364" />
              <mxPoint x="600" y="320" />
            </Array>
          </mxGeometry>
        </mxCell>
        <mxCell id="-jcanLdKdCl-yKt6BdGD-35" value="" style="endArrow=none;dashed=1;html=1;dashPattern=1 3;strokeWidth=2;entryX=1;entryY=0.5;entryDx=0;entryDy=0;exitX=0;exitY=0;exitDx=0;exitDy=0;rounded=0;orthogonal=1;" parent="1" source="IBeI8l__l9tSu07Wctf3-12" target="-jcanLdKdCl-yKt6BdGD-3" edge="1">
          <mxGeometry width="50" height="50" relative="1" as="geometry">
            <mxPoint x="360" y="302.90999999999997" as="sourcePoint" />
            <mxPoint x="478.2842712474619" y="211.19427124746198" as="targetPoint" />
            <Array as="points">
              <mxPoint x="640" y="325" />
              <mxPoint x="640" y="240" />
            </Array>
          </mxGeometry>
        </mxCell>
        <mxCell id="-jcanLdKdCl-yKt6BdGD-39" value="" style="endArrow=classic;html=1;entryX=0;entryY=0;entryDx=0;entryDy=0;exitX=1;exitY=1;exitDx=0;exitDy=0;" parent="1" source="IBeI8l__l9tSu07Wctf3-12" target="-jcanLdKdCl-yKt6BdGD-8" edge="1">
          <mxGeometry relative="1" as="geometry">
            <mxPoint x="820" y="290" as="sourcePoint" />
            <mxPoint x="820" y="355" as="targetPoint" />
          </mxGeometry>
        </mxCell>
        <mxCell id="-jcanLdKdCl-yKt6BdGD-40" value="SPAWN" style="edgeLabel;resizable=0;html=1;align=center;verticalAlign=middle;" parent="-jcanLdKdCl-yKt6BdGD-39" connectable="0" vertex="1">
          <mxGeometry relative="1" as="geometry" />
        </mxCell>
        <mxCell id="-jcanLdKdCl-yKt6BdGD-45" value="" style="endArrow=none;dashed=1;html=1;dashPattern=1 3;strokeWidth=2;entryX=0;entryY=0.5;entryDx=0;entryDy=0;exitX=1;exitY=0.5;exitDx=0;exitDy=0;rounded=0;" parent="1" source="IBeI8l__l9tSu07Wctf3-12" target="IBeI8l__l9tSu07Wctf3-8" edge="1">
          <mxGeometry width="50" height="50" relative="1" as="geometry">
            <mxPoint x="540" y="420" as="sourcePoint" />
            <mxPoint x="590" y="370" as="targetPoint" />
            <Array as="points">
              <mxPoint x="810" y="364" />
              <mxPoint x="810" y="320" />
            </Array>
          </mxGeometry>
        </mxCell>
        <mxCell id="-jcanLdKdCl-yKt6BdGD-46" value="" style="endArrow=none;dashed=1;html=1;dashPattern=1 3;strokeWidth=2;entryX=0.5;entryY=1;entryDx=0;entryDy=0;exitX=0;exitY=0.5;exitDx=0;exitDy=0;rounded=0;" parent="1" source="IBeI8l__l9tSu07Wctf3-3" target="-jcanLdKdCl-yKt6BdGD-3" edge="1">
          <mxGeometry width="50" height="50" relative="1" as="geometry">
            <mxPoint x="240" y="418.84" as="sourcePoint" />
            <mxPoint x="290" y="368.84" as="targetPoint" />
            <Array as="points">
              <mxPoint x="340" y="320" />
            </Array>
          </mxGeometry>
        </mxCell>
        <mxCell id="-jcanLdKdCl-yKt6BdGD-47" value="" style="endArrow=none;dashed=1;html=1;dashPattern=1 3;strokeWidth=2;" parent="1" edge="1">
          <mxGeometry width="50" height="50" relative="1" as="geometry">
            <mxPoint x="110" y="239.05000000000007" as="sourcePoint" />
            <mxPoint x="210" y="238.6300000000001" as="targetPoint" />
          </mxGeometry>
        </mxCell>
        <mxCell id="-jcanLdKdCl-yKt6BdGD-48" value="Comunicazione" style="text;html=1;strokeColor=none;fillColor=none;align=center;verticalAlign=middle;whiteSpace=wrap;rounded=0;dashed=1;" parent="1" vertex="1">
          <mxGeometry x="13" y="228.84000000000003" width="90" height="20" as="geometry" />
        </mxCell>
        <mxCell id="-jcanLdKdCl-yKt6BdGD-50" value="" style="endArrow=classic;html=1;" parent="1" edge="1">
          <mxGeometry relative="1" as="geometry">
            <mxPoint x="110" y="258.6700000000001" as="sourcePoint" />
            <mxPoint x="210" y="258.84000000000003" as="targetPoint" />
          </mxGeometry>
        </mxCell>
        <mxCell id="-jcanLdKdCl-yKt6BdGD-51" value="SPAWN" style="edgeLabel;resizable=0;html=1;align=center;verticalAlign=middle;" parent="-jcanLdKdCl-yKt6BdGD-50" connectable="0" vertex="1">
          <mxGeometry relative="1" as="geometry" />
        </mxCell>
        <mxCell id="-jcanLdKdCl-yKt6BdGD-52" value="Creazione" style="text;html=1;strokeColor=none;fillColor=none;align=center;verticalAlign=middle;whiteSpace=wrap;rounded=0;dashed=1;" parent="1" vertex="1">
          <mxGeometry x="13" y="248.84000000000003" width="68" height="20" as="geometry" />
        </mxCell>
        <mxCell id="3y9wfljf3Pt6f6VjnLFp-1" value="HB_in" style="ellipse;whiteSpace=wrap;html=1;aspect=fixed;fillColor=#d5e8d4;strokeColor=#82b366;" vertex="1" parent="1">
          <mxGeometry x="940" y="265" width="80" height="80" as="geometry" />
        </mxCell>
        <mxCell id="3y9wfljf3Pt6f6VjnLFp-2" value="HB_out" style="ellipse;whiteSpace=wrap;html=1;aspect=fixed;fillColor=#fff2cc;strokeColor=#d6b656;" vertex="1" parent="1">
          <mxGeometry x="1030" y="353" width="80" height="80" as="geometry" />
        </mxCell>
        <mxCell id="3y9wfljf3Pt6f6VjnLFp-4" value="" style="endArrow=classic;html=1;entryX=0;entryY=0;entryDx=0;entryDy=0;exitX=1;exitY=1;exitDx=0;exitDy=0;" edge="1" parent="1" source="3y9wfljf3Pt6f6VjnLFp-1" target="3y9wfljf3Pt6f6VjnLFp-2">
          <mxGeometry relative="1" as="geometry">
            <mxPoint x="773.8908729652601" y="237.73087296526012" as="sourcePoint" />
            <mxPoint x="861.7157287525379" y="301.71572875253787" as="targetPoint" />
          </mxGeometry>
        </mxCell>
        <mxCell id="3y9wfljf3Pt6f6VjnLFp-5" value="SPAWN" style="edgeLabel;resizable=0;html=1;align=center;verticalAlign=middle;" connectable="0" vertex="1" parent="3y9wfljf3Pt6f6VjnLFp-4">
          <mxGeometry relative="1" as="geometry" />
        </mxCell>
        <mxCell id="3y9wfljf3Pt6f6VjnLFp-6" value="" style="endArrow=classic;html=1;entryX=0.5;entryY=0;entryDx=0;entryDy=0;exitX=0.5;exitY=1;exitDx=0;exitDy=0;" edge="1" parent="1" source="CnOm33l_RqHOCfw_i5Eg-1" target="3y9wfljf3Pt6f6VjnLFp-1">
          <mxGeometry relative="1" as="geometry">
            <mxPoint x="735" y="253.84000000000003" as="sourcePoint" />
            <mxPoint x="735" y="318.84000000000015" as="targetPoint" />
          </mxGeometry>
        </mxCell>
        <mxCell id="3y9wfljf3Pt6f6VjnLFp-7" value="SPAWN" style="edgeLabel;resizable=0;html=1;align=center;verticalAlign=middle;" connectable="0" vertex="1" parent="3y9wfljf3Pt6f6VjnLFp-6">
          <mxGeometry relative="1" as="geometry" />
        </mxCell>
        <mxCell id="3y9wfljf3Pt6f6VjnLFp-8" value="" style="endArrow=classic;html=1;" edge="1" parent="1" source="IBeI8l__l9tSu07Wctf3-8" target="-jcanLdKdCl-yKt6BdGD-8">
          <mxGeometry relative="1" as="geometry">
            <mxPoint x="773.8908729652601" y="412.73087296526023" as="sourcePoint" />
            <mxPoint x="821.7157287525379" y="451.71572875253787" as="targetPoint" />
          </mxGeometry>
        </mxCell>
        <mxCell id="3y9wfljf3Pt6f6VjnLFp-9" value="SPAWN" style="edgeLabel;resizable=0;html=1;align=center;verticalAlign=middle;" connectable="0" vertex="1" parent="3y9wfljf3Pt6f6VjnLFp-8">
          <mxGeometry relative="1" as="geometry" />
        </mxCell>
      </root>
    </mxGraphModel>
  </diagram>
</mxfile>
